<svg id="visual" viewBox="0 0 300 450" width="300" height="450" xmlns="http://www.w3.org/2000/svg" xmlns:xlink="http://www.w3.org/1999/xlink" version="1.1"><path d="M0 55L23 55L23 37L46 37L46 51L69 51L69 73L92 73L92 33L115 33L115 28L138 28L138 28L162 28L162 33L185 33L185 69L208 69L208 33L231 33L231 69L254 69L254 73L277 73L277 46L300 46L300 28L300 0L300 0L277 0L277 0L254 0L254 0L231 0L231 0L208 0L208 0L185 0L185 0L162 0L162 0L138 0L138 0L115 0L115 0L92 0L92 0L69 0L69 0L46 0L46 0L23 0L23 0L0 0Z" fill="#b0235f"></path><path d="M0 154L23 154L23 109L46 109L46 96L69 96L69 127L92 127L92 132L115 132L115 132L138 132L138 64L162 64L162 82L185 82L185 136L208 136L208 91L231 91L231 150L254 150L254 154L277 154L277 118L300 118L300 127L300 26L300 44L277 44L277 71L254 71L254 67L231 67L231 31L208 31L208 67L185 67L185 31L162 31L162 26L138 26L138 26L115 26L115 31L92 31L92 71L69 71L69 49L46 49L46 35L23 35L23 53L0 53Z" fill="#bc407a"></path><path d="M0 181L23 181L23 154L46 154L46 136L69 136L69 150L92 150L92 168L115 168L115 190L138 190L138 123L162 123L162 114L185 114L185 168L208 168L208 114L231 114L231 213L254 213L254 190L277 190L277 154L300 154L300 172L300 125L300 116L277 116L277 152L254 152L254 148L231 148L231 89L208 89L208 134L185 134L185 80L162 80L162 62L138 62L138 130L115 130L115 130L92 130L92 125L69 125L69 94L46 94L46 107L23 107L23 152L0 152Z" fill="#c75a95"></path><path d="M0 208L23 208L23 190L46 190L46 172L69 172L69 195L92 195L92 199L115 199L115 262L138 262L138 190L162 190L162 204L185 204L185 217L208 217L208 177L231 177L231 280L254 280L254 271L277 271L277 235L300 235L300 231L300 170L300 152L277 152L277 188L254 188L254 211L231 211L231 112L208 112L208 166L185 166L185 112L162 112L162 121L138 121L138 188L115 188L115 166L92 166L92 148L69 148L69 134L46 134L46 152L23 152L23 179L0 179Z" fill="#d172af"></path><path d="M0 312L23 312L23 339L46 339L46 375L69 375L69 375L92 375L92 325L115 325L115 316L138 316L138 262L162 262L162 357L185 357L185 289L208 289L208 271L231 271L231 334L254 334L254 397L277 397L277 393L300 393L300 334L300 229L300 233L277 233L277 269L254 269L254 278L231 278L231 175L208 175L208 215L185 215L185 202L162 202L162 188L138 188L138 260L115 260L115 197L92 197L92 193L69 193L69 170L46 170L46 188L23 188L23 206L0 206Z" fill="#d98ac7"></path><path d="M0 451L23 451L23 451L46 451L46 451L69 451L69 451L92 451L92 451L115 451L115 451L138 451L138 451L162 451L162 451L185 451L185 451L208 451L208 451L231 451L231 451L254 451L254 451L277 451L277 451L300 451L300 451L300 332L300 391L277 391L277 395L254 395L254 332L231 332L231 269L208 269L208 287L185 287L185 355L162 355L162 260L138 260L138 314L115 314L115 323L92 323L92 373L69 373L69 373L46 373L46 337L23 337L23 310L0 310Z" fill="#e1a1de"></path></svg>